<mxfile host="app.diagrams.net" modified="2024-07-02T03:50:24.929Z" agent="Mozilla/5.0 (Windows NT 10.0; Win64; x64; rv:127.0) Gecko/20100101 Firefox/127.0" version="24.6.4" etag="wLUCcjd7W4nyYocSQVEh" type="github">
  <diagram name="PÃ¡gina-1" id="HxGC82yTaFfLbKAXICiq">
    <mxGraphModel>
      <root>
        <mxCell id="0" />
        <mxCell id="1" parent="0" />
      </root>
    </mxGraphModel>
  </diagram>
</mxfile>
